<?xml version="1.0" encoding="utf-8"?><!-- Uploaded to: SVG Repo, www.svgrepo.com, Generator: SVG Repo Mixer Tools -->
<svg width="800px" height="800px" viewBox="0 -0.5 25 25" fill="none" xmlns="http://www.w3.org/2000/svg">
<path fill-rule="evenodd" clip-rule="evenodd" d="M9.808 4.00001H15.329C15.3863 4.00001 15.4433 4.00367 15.5 4.01101C17.7473 4.16817 19.4924 6.0332 19.5 8.28601V14.715C19.4917 17.0871 17.5641 19.0044 15.192 19H9.808C7.43551 19.0044 5.50772 17.0865 5.5 14.714V8.28601C5.50772 5.91353 7.43551 3.99558 9.808 4.00001Z" stroke="#000000" stroke-width="1.5" stroke-linecap="round" stroke-linejoin="round"/>
<path d="M19.5 9.03599C19.9142 9.03599 20.25 8.7002 20.25 8.28599C20.25 7.87177 19.9142 7.53599 19.5 7.53599V9.03599ZM15.5 8.28599H14.75C14.75 8.7002 15.0858 9.03599 15.5 9.03599V8.28599ZM16.25 4.01099C16.25 3.59677 15.9142 3.26099 15.5 3.26099C15.0858 3.26099 14.75 3.59677 14.75 4.01099H16.25ZM14.5 12.75C14.9142 12.75 15.25 12.4142 15.25 12C15.25 11.5858 14.9142 11.25 14.5 11.25V12.75ZM8.5 11.25C8.08579 11.25 7.75 11.5858 7.75 12C7.75 12.4142 8.08579 12.75 8.5 12.75V11.25ZM11.5 9.74999C11.9142 9.74999 12.25 9.4142 12.25 8.99999C12.25 8.58577 11.9142 8.24999 11.5 8.24999V9.74999ZM8.5 8.24999C8.08579 8.24999 7.75 8.58577 7.75 8.99999C7.75 9.4142 8.08579 9.74999 8.5 9.74999V8.24999ZM15.5 15.75C15.9142 15.75 16.25 15.4142 16.25 15C16.25 14.5858 15.9142 14.25 15.5 14.25V15.75ZM8.5 14.25C8.08579 14.25 7.75 14.5858 7.75 15C7.75 15.4142 8.08579 15.75 8.5 15.75V14.25ZM19.5 7.53599H15.5V9.03599H19.5V7.53599ZM16.25 8.28599V4.01099H14.75V8.28599H16.25ZM14.5 11.25H8.5V12.75H14.5V11.25ZM11.5 8.24999H8.5V9.74999H11.5V8.24999ZM15.5 14.25H8.5V15.75H15.5V14.25Z" fill="#000000"/>
</svg>